<svg xmlns="http://www.w3.org/2000/svg" xmlns:xlink="http://www.w3.org/1999/xlink" width="500" zoomAndPan="magnify" viewBox="0 0 375 374.999991" height="500" preserveAspectRatio="xMidYMid meet" version="1.0"><defs><clipPath id="403665e170"><path d="M 0 0 L 371.25 0 L 371.25 371.25 L 0 371.25 Z M 0 0 " clip-rule="nonzero"/></clipPath></defs><rect x="-37.5" width="450" fill="#ffffff" y="-37.499999" height="449.999989" fill-opacity="1"/><rect x="-37.5" width="450" fill="#ffffff" y="-37.499999" height="449.999989" fill-opacity="1"/><g clip-path="url(#403665e170)"><path fill="#88ccf1" d="M 371.25 185.621094 C 371.25 288.140625 288.140625 371.25 185.621094 371.25 C 83.109375 371.25 0 288.140625 0 185.621094 C 0 83.105469 83.109375 0 185.621094 0 C 288.140625 0 371.25 83.105469 371.25 185.621094 " fill-opacity="1" fill-rule="nonzero"/></g><path fill="#ffffff" d="M 196.824219 196.773438 C 177.253906 216.34375 145.523438 216.34375 125.953125 196.773438 C 106.464844 177.285156 106.464844 145.554688 126.011719 125.953125 C 145.550781 106.464844 177.230469 106.464844 196.742188 125.980469 C 216.34375 145.578125 216.34375 177.257812 196.824219 196.773438 Z M 102.414062 102.355469 C 69.8125 135.011719 69.8125 187.828125 102.355469 220.371094 C 130.902344 248.914062 174.957031 252.480469 207.394531 230.964844 L 269.695312 293.269531 L 293.292969 269.671875 L 231.015625 207.34375 C 252.453125 175.042969 248.910156 130.957031 220.367188 102.355469 C 187.824219 69.871094 134.984375 69.84375 102.414062 102.355469 " fill-opacity="1" fill-rule="nonzero"/></svg>