<svg xmlns="http://www.w3.org/2000/svg" xmlns:xlink="http://www.w3.org/1999/xlink" width="500" zoomAndPan="magnify" viewBox="0 0 375 374.999991" height="500" preserveAspectRatio="xMidYMid meet" version="1.0"><defs><g/><clipPath id="aa4a6b0f19"><path d="M 4.5 0 L 364.5 0 L 364.5 369.75 L 4.5 369.75 Z M 4.5 0 " clip-rule="nonzero"/></clipPath></defs><g clip-path="url(#aa4a6b0f19)"><path fill="#ffffff" d="M 364.3125 100.011719 C 331.3125 50.785156 275.164062 18.382812 211.445312 18.382812 C 109.871094 18.382812 27.53125 100.71875 27.53125 202.292969 C 27.53125 276.613281 71.617188 340.636719 135.066406 369.632812 C 59.210938 344.421875 4.5 272.875 4.5 188.550781 C 4.5 83.1875 89.917969 -2.226562 195.28125 -2.226562 C 268.6875 -2.226562 332.414062 39.234375 364.3125 100.011719 Z M 364.3125 100.011719 " fill-opacity="1" fill-rule="nonzero"/></g><path fill="#f8b400" d="M 316.574219 314.0625 C 287.1875 347.34375 244.203125 368.332031 196.3125 368.332031 C 107.738281 368.332031 35.929688 296.523438 35.929688 207.949219 C 35.929688 155.863281 60.757812 109.578125 99.226562 80.28125 C 74.25 108.558594 59.097656 145.710938 59.097656 186.398438 C 59.097656 274.976562 130.902344 346.78125 219.480469 346.78125 C 255.976562 346.78125 289.625 334.589844 316.574219 314.0625 Z M 316.574219 314.0625 " fill-opacity="1" fill-rule="nonzero"/><g fill="#ffffff" fill-opacity="1"><g transform="translate(112.499997, 246.96987)"><g><path d="M 32.90625 -20.96875 C 33.5625 -21.625 34.023438 -21.816406 34.296875 -21.546875 C 34.566406 -21.273438 34.71875 -20.820312 34.75 -20.1875 C 34.78125 -19.5625 34.738281 -19.03125 34.625 -18.59375 C 34.40625 -17.707031 34.046875 -16.835938 33.546875 -15.984375 C 33.054688 -15.140625 32.566406 -14.304688 32.078125 -13.484375 C 30.867188 -11.515625 29.6875 -9.5 28.53125 -7.4375 C 27.382812 -5.382812 26.125 -3.367188 24.75 -1.390625 C 23.269531 0.742188 21.722656 2.863281 20.109375 4.96875 C 18.492188 7.082031 16.726562 9.070312 14.8125 10.9375 C 13.769531 11.925781 12.585938 12.789062 11.265625 13.53125 C 9.953125 14.269531 8.625 14.625 7.28125 14.59375 C 5.9375 14.570312 4.609375 13.984375 3.296875 12.828125 C 2.140625 11.734375 1.328125 10.429688 0.859375 8.921875 C 0.398438 7.410156 0.140625 5.816406 0.078125 4.140625 C 0.0234375 2.472656 0.0234375 0.925781 0.078125 -0.5 C 0.242188 -2.800781 0.585938 -5.070312 1.109375 -7.3125 C 1.628906 -9.5625 2.164062 -11.785156 2.71875 -13.984375 C 2.769531 -14.085938 2.796875 -14.492188 2.796875 -15.203125 C 2.796875 -15.921875 2.90625 -16.421875 3.125 -16.703125 C 3.070312 -16.640625 3.046875 -16.484375 3.046875 -16.234375 C 3.046875 -15.992188 3.019531 -15.738281 2.96875 -15.46875 C 3.070312 -15.738281 3.164062 -16.023438 3.25 -16.328125 C 3.332031 -16.628906 3.425781 -16.914062 3.53125 -17.1875 L 3.296875 -17.1875 C 3.179688 -18.007812 3.328125 -18.984375 3.734375 -20.109375 C 4.148438 -21.234375 4.46875 -22.179688 4.6875 -22.953125 C 4.957031 -23.878906 5.257812 -24.835938 5.59375 -25.828125 C 5.925781 -26.816406 6.253906 -27.773438 6.578125 -28.703125 C 7.179688 -30.460938 7.8125 -32.21875 8.46875 -33.96875 C 9.125 -35.71875 9.726562 -37.472656 10.28125 -39.234375 C 10.832031 -40.984375 11.488281 -42.707031 12.25 -44.40625 C 13.019531 -46.113281 13.816406 -47.789062 14.640625 -49.4375 C 15.410156 -51.019531 16.234375 -52.582031 17.109375 -54.125 C 17.210938 -54.289062 17.429688 -54.6875 17.765625 -55.3125 C 18.097656 -55.945312 18.453125 -56.5625 18.828125 -57.15625 C 19.210938 -57.757812 19.460938 -58.035156 19.578125 -57.984375 L 18.921875 -56.59375 L 21.546875 -61.109375 L 21.46875 -61.03125 C 21.6875 -61.351562 21.914062 -61.773438 22.15625 -62.296875 C 22.40625 -62.816406 22.640625 -63.191406 22.859375 -63.421875 L 24.75 -65.96875 C 25.351562 -66.675781 26.007812 -67.441406 26.71875 -68.265625 C 27.4375 -69.085938 28.265625 -69.632812 29.203125 -69.90625 C 30.410156 -70.289062 31.519531 -70.207031 32.53125 -69.65625 C 33.539062 -69.113281 34.375 -68.320312 35.03125 -67.28125 C 35.695312 -66.238281 36.109375 -65.171875 36.265625 -64.078125 L 36.359375 -63.984375 L 36.359375 -63.578125 C 36.515625 -61.929688 36.347656 -60.203125 35.859375 -58.390625 C 35.367188 -56.585938 34.738281 -54.820312 33.96875 -53.09375 C 33.195312 -51.363281 32.429688 -49.785156 31.671875 -48.359375 C 31.003906 -47.046875 30.300781 -45.660156 29.5625 -44.203125 C 28.820312 -42.753906 27.929688 -41.484375 26.890625 -40.390625 C 26.179688 -39.617188 25.609375 -38.804688 25.171875 -37.953125 C 24.734375 -37.109375 24.210938 -36.21875 23.609375 -35.28125 C 22.066406 -32.757812 20.445312 -30.265625 18.75 -27.796875 C 17.050781 -25.328125 15.269531 -22.941406 13.40625 -20.640625 C 12.96875 -20.097656 12.597656 -19.59375 12.296875 -19.125 C 11.992188 -18.65625 11.734375 -18.035156 11.515625 -17.265625 C 11.296875 -16.503906 11.078125 -15.722656 10.859375 -14.921875 C 10.640625 -14.128906 10.421875 -13.320312 10.203125 -12.5 C 9.984375 -11.675781 9.765625 -10.851562 9.546875 -10.03125 C 9.328125 -9.207031 9.109375 -8.382812 8.890625 -7.5625 C 8.828125 -7.175781 8.660156 -6.570312 8.390625 -5.75 C 8.117188 -4.9375 8.007812 -4.472656 8.0625 -4.359375 C 7.84375 -3.429688 7.675781 -2.414062 7.5625 -1.3125 L 8.21875 -3.78125 C 8.4375 -3.457031 8.453125 -2.828125 8.265625 -1.890625 C 8.078125 -0.960938 7.953125 -0.304688 7.890625 0.078125 C 7.734375 1.285156 7.65625 2.578125 7.65625 3.953125 C 7.65625 4.441406 7.679688 5.097656 7.734375 5.921875 C 7.785156 6.742188 7.960938 7.5 8.265625 8.1875 C 8.566406 8.875 9.046875 9.269531 9.703125 9.375 C 10.640625 9.488281 11.570312 9.1875 12.5 8.46875 C 13.4375 7.757812 14.285156 6.9375 15.046875 6 C 15.816406 5.070312 16.421875 4.332031 16.859375 3.78125 C 18.554688 1.75 20.128906 -0.375 21.578125 -2.59375 C 23.035156 -4.8125 24.453125 -7.019531 25.828125 -9.21875 C 26.597656 -10.363281 27.320312 -11.507812 28 -12.65625 C 28.6875 -13.8125 29.390625 -14.992188 30.109375 -16.203125 C 30.546875 -16.972656 30.984375 -17.804688 31.421875 -18.703125 C 31.859375 -19.609375 32.351562 -20.363281 32.90625 -20.96875 Z M 22.625 -50.421875 C 21.082031 -46.742188 19.691406 -42.984375 18.453125 -39.140625 C 17.222656 -35.304688 16.007812 -31.582031 14.8125 -27.96875 C 17.875 -32.84375 20.953125 -37.867188 24.046875 -43.046875 C 27.148438 -48.234375 29.632812 -53.570312 31.5 -59.0625 C 30.789062 -57.082031 29.953125 -55.144531 28.984375 -53.25 C 28.023438 -51.363281 27.082031 -49.515625 26.15625 -47.703125 C 25.601562 -46.660156 25.039062 -45.628906 24.46875 -44.609375 C 23.894531 -43.597656 23.304688 -42.570312 22.703125 -41.53125 C 22.316406 -40.925781 21.832031 -40.195312 21.25 -39.34375 C 20.675781 -38.5 20.253906 -37.75 19.984375 -37.09375 C 20.316406 -38.1875 20.894531 -39.304688 21.71875 -40.453125 C 22.539062 -41.609375 23.222656 -42.679688 23.765625 -43.671875 L 27.21875 -50.09375 C 28.207031 -52.0625 29.289062 -54.210938 30.46875 -56.546875 C 31.644531 -58.878906 32.265625 -61.195312 32.328125 -63.5 L 32.328125 -63.578125 C 32.378906 -64.671875 32.226562 -65.257812 31.875 -65.34375 C 31.519531 -65.425781 31.082031 -65.25 30.5625 -64.8125 C 30.039062 -64.375 29.554688 -63.863281 29.109375 -63.28125 C 28.671875 -62.707031 28.375 -62.3125 28.21875 -62.09375 C 27.0625 -60.226562 26.046875 -58.304688 25.171875 -56.328125 C 24.296875 -54.359375 23.445312 -52.390625 22.625 -50.421875 Z M 19.984375 -56.171875 C 19.546875 -55.296875 19.117188 -54.445312 18.703125 -53.625 C 18.296875 -52.800781 17.898438 -51.925781 17.515625 -51 C 17.460938 -50.9375 17.4375 -50.828125 17.4375 -50.671875 C 18.363281 -52.316406 19.320312 -53.945312 20.3125 -55.5625 C 21.300781 -57.175781 22.234375 -58.832031 23.109375 -60.53125 C 22.722656 -59.820312 22.210938 -59.109375 21.578125 -58.390625 C 20.953125 -57.679688 20.421875 -56.941406 19.984375 -56.171875 Z M 4.4375 -13.65625 C 4.5 -13.707031 4.53125 -13.773438 4.53125 -13.859375 C 4.53125 -13.941406 4.472656 -13.957031 4.359375 -13.90625 C 4.191406 -13.90625 4.007812 -13.53125 3.8125 -12.78125 C 3.625 -12.039062 3.476562 -11.207031 3.375 -10.28125 L 3.375 -10.359375 C 3.101562 -8.929688 2.882812 -7.460938 2.71875 -5.953125 C 2.550781 -4.453125 2.410156 -2.960938 2.296875 -1.484375 L 2.546875 -4.109375 L 2.546875 -3.859375 C 2.546875 -4.140625 2.570312 -4.414062 2.625 -4.6875 C 2.6875 -4.957031 2.742188 -5.234375 2.796875 -5.515625 C 3.066406 -6.773438 3.269531 -8.113281 3.40625 -9.53125 C 3.550781 -10.957031 3.867188 -12.25 4.359375 -13.40625 C 4.359375 -13.40625 4.359375 -13.429688 4.359375 -13.484375 C 4.359375 -13.546875 4.382812 -13.601562 4.4375 -13.65625 Z M 4.4375 -13.65625 "/></g></g></g><g fill="#ffffff" fill-opacity="1"><g transform="translate(141.618083, 246.96987)"><g><path d="M 37.828125 -20.484375 C 38.429688 -19.710938 38.40625 -19.078125 37.75 -18.578125 C 37.09375 -18.085938 36.175781 -17.707031 35 -17.4375 C 33.820312 -17.164062 32.695312 -16.972656 31.625 -16.859375 C 30.550781 -16.753906 29.90625 -16.671875 29.6875 -16.609375 C 29.632812 -16.609375 29.414062 -16.550781 29.03125 -16.4375 C 28.644531 -16.332031 28.484375 -16.3125 28.546875 -16.375 C 28.160156 -16.207031 27.925781 -16.09375 27.84375 -16.03125 C 27.757812 -15.976562 27.582031 -15.757812 27.3125 -15.375 C 26.976562 -14.882812 26.660156 -14.378906 26.359375 -13.859375 C 26.054688 -13.335938 25.769531 -12.832031 25.5 -12.34375 C 25.382812 -12.226562 25.050781 -11.785156 24.5 -11.015625 C 23.957031 -10.253906 23.394531 -9.53125 22.8125 -8.84375 C 22.238281 -8.15625 21.84375 -7.835938 21.625 -7.890625 C 21.625 -7.890625 21.734375 -8.023438 21.953125 -8.296875 C 22.179688 -8.578125 22.265625 -8.742188 22.203125 -8.796875 L 19.828125 -6 C 20.097656 -6.28125 20.234375 -6.363281 20.234375 -6.25 C 20.015625 -5.539062 19.367188 -4.816406 18.296875 -4.078125 C 17.234375 -3.335938 16.398438 -2.742188 15.796875 -2.296875 C 15.140625 -1.804688 14.410156 -1.351562 13.609375 -0.9375 C 12.816406 -0.53125 11.984375 -0.273438 11.109375 -0.171875 C 9.398438 -0.00390625 7.726562 -0.300781 6.09375 -1.0625 C 4.5 -1.882812 3.148438 -3.078125 2.046875 -4.640625 C 0.953125 -6.203125 0.28125 -7.914062 0.03125 -9.78125 C -0.207031 -11.644531 0.109375 -13.398438 0.984375 -15.046875 C 1.703125 -16.367188 2.359375 -17.738281 2.953125 -19.15625 C 3.554688 -20.582031 4.351562 -21.957031 5.34375 -23.28125 C 5.945312 -23.988281 6.5625 -24.671875 7.1875 -25.328125 C 7.820312 -25.984375 8.523438 -26.5625 9.296875 -27.0625 C 9.953125 -27.550781 10.691406 -27.960938 11.515625 -28.296875 C 11.785156 -28.460938 12.164062 -28.582031 12.65625 -28.65625 C 13.15625 -28.738281 13.515625 -28.863281 13.734375 -29.03125 C 14.003906 -29.195312 14.25 -29.675781 14.46875 -30.46875 C 14.695312 -31.269531 14.890625 -31.832031 15.046875 -32.15625 C 15.378906 -32.757812 15.765625 -33.390625 16.203125 -34.046875 C 16.804688 -34.867188 17.453125 -35.664062 18.140625 -36.4375 C 18.828125 -37.207031 19.609375 -37.835938 20.484375 -38.328125 C 21.910156 -39.097656 23.28125 -39.207031 24.59375 -38.65625 C 25.90625 -38.101562 27.082031 -37.304688 28.125 -36.265625 C 28.125 -36.265625 28.359375 -36.097656 28.828125 -35.765625 C 29.296875 -35.441406 29.503906 -35.144531 29.453125 -34.875 L 29.109375 -35.203125 L 29.453125 -34.546875 L 29.53125 -34.46875 C 29.414062 -34.789062 29.507812 -34.773438 29.8125 -34.421875 C 30.113281 -34.066406 30.265625 -33.890625 30.265625 -33.890625 C 30.648438 -33.335938 30.925781 -32.625 31.09375 -31.75 C 31.195312 -31.195312 31.25 -30.617188 31.25 -30.015625 C 31.25 -29.410156 31.195312 -28.8125 31.09375 -28.21875 C 30.925781 -26.675781 30.632812 -25.132812 30.21875 -23.59375 C 29.8125 -22.0625 29.390625 -20.554688 28.953125 -19.078125 C 30.210938 -19.296875 31.445312 -19.539062 32.65625 -19.8125 C 33.863281 -20.09375 35.066406 -20.34375 36.265625 -20.5625 C 36.546875 -20.675781 36.820312 -20.769531 37.09375 -20.84375 C 37.363281 -20.925781 37.609375 -20.832031 37.828125 -20.5625 C 37.890625 -20.507812 37.90625 -20.484375 37.875 -20.484375 C 37.84375 -20.484375 37.828125 -20.484375 37.828125 -20.484375 Z M 9.375 -3.859375 C 11.289062 -4.242188 13.054688 -5.117188 14.671875 -6.484375 C 16.296875 -7.859375 17.710938 -9.453125 18.921875 -11.265625 C 20.128906 -13.078125 21.140625 -14.78125 21.953125 -16.375 C 20.753906 -16.53125 19.523438 -16.828125 18.265625 -17.265625 C 17.003906 -17.710938 15.890625 -18.359375 14.921875 -19.203125 C 13.960938 -20.054688 13.320312 -21.164062 13 -22.53125 C 12.34375 -21.820312 11.351562 -20.125 10.03125 -17.4375 L 10.53125 -18.171875 C 10.476562 -18.015625 10.203125 -17.398438 9.703125 -16.328125 C 9.210938 -15.253906 8.664062 -13.976562 8.0625 -12.5 C 7.457031 -11.019531 7.003906 -9.59375 6.703125 -8.21875 C 6.398438 -6.851562 6.410156 -5.726562 6.734375 -4.84375 C 7.066406 -3.96875 7.921875 -3.640625 9.296875 -3.859375 Z M 25.578125 -26.65625 C 25.742188 -27.363281 25.921875 -28.222656 26.109375 -29.234375 C 26.304688 -30.253906 26.429688 -31.269531 26.484375 -32.28125 C 26.535156 -33.300781 26.34375 -34.164062 25.90625 -34.875 C 25.363281 -35.75 24.707031 -36.019531 23.9375 -35.6875 C 23.164062 -35.363281 22.421875 -34.816406 21.703125 -34.046875 C 20.992188 -33.285156 20.421875 -32.628906 19.984375 -32.078125 C 19.929688 -32.078125 19.90625 -32.0625 19.90625 -32.03125 C 19.90625 -32.007812 19.90625 -32 19.90625 -32 L 19.828125 -31.828125 L 19.828125 -31.90625 C 19.765625 -31.75 19.734375 -31.671875 19.734375 -31.671875 C 19.515625 -31.390625 19.296875 -31.097656 19.078125 -30.796875 C 18.859375 -30.492188 18.613281 -30.125 18.34375 -29.6875 C 18.394531 -29.75 18.570312 -30.007812 18.875 -30.46875 C 19.175781 -30.9375 19.351562 -31.117188 19.40625 -31.015625 C 19.519531 -30.847656 19.453125 -30.503906 19.203125 -29.984375 C 18.953125 -29.460938 18.691406 -28.941406 18.421875 -28.421875 C 18.148438 -27.898438 17.957031 -27.554688 17.84375 -27.390625 C 17.625 -26.734375 17.414062 -26.070312 17.21875 -25.40625 C 17.03125 -24.75 16.882812 -24.066406 16.78125 -23.359375 C 16.726562 -22.648438 16.710938 -21.9375 16.734375 -21.21875 C 16.765625 -20.507812 17.050781 -19.90625 17.59375 -19.40625 C 17.925781 -19.132812 18.335938 -18.941406 18.828125 -18.828125 C 19.328125 -18.722656 19.796875 -18.644531 20.234375 -18.59375 C 20.503906 -18.53125 20.859375 -18.484375 21.296875 -18.453125 C 21.734375 -18.429688 22.066406 -18.445312 22.296875 -18.5 C 22.734375 -18.613281 22.953125 -18.671875 22.953125 -18.671875 C 22.953125 -18.671875 23.0625 -18.863281 23.28125 -19.25 C 23.882812 -20.289062 24.347656 -21.492188 24.671875 -22.859375 C 25.003906 -24.234375 25.304688 -25.5 25.578125 -26.65625 Z M 19.90625 -32 C 19.90625 -32 19.914062 -32 19.9375 -32 C 19.96875 -32 19.984375 -32.023438 19.984375 -32.078125 Z M 19.90625 -32 "/></g></g></g><g fill="#ffffff" fill-opacity="1"><g transform="translate(173.779583, 246.96987)"><g><path d="M 41.953125 -19.734375 C 42.109375 -18.972656 41.925781 -18.382812 41.40625 -17.96875 C 40.882812 -17.5625 40.351562 -17.140625 39.8125 -16.703125 L 33.140625 -11.59375 C 31.941406 -10.601562 30.738281 -9.628906 29.53125 -8.671875 C 28.320312 -7.710938 27.140625 -6.710938 25.984375 -5.671875 C 25.441406 -5.234375 24.867188 -4.78125 24.265625 -4.3125 C 23.660156 -3.851562 23.113281 -3.375 22.625 -2.875 C 22.125 -2.332031 21.773438 -1.726562 21.578125 -1.0625 C 21.390625 -0.40625 21.1875 0.273438 20.96875 0.984375 C 19.601562 5.703125 18.175781 10.457031 16.6875 15.25 C 15.207031 20.050781 13.238281 24.59375 10.78125 28.875 C 10.007812 30.238281 9.179688 31.578125 8.296875 32.890625 C 7.421875 34.210938 6.109375 35.09375 4.359375 35.53125 C 2.328125 36.019531 0.519531 35.609375 -1.0625 34.296875 C -2.65625 32.984375 -3.835938 31.445312 -4.609375 29.6875 C -5.429688 27.664062 -5.539062 25.722656 -4.9375 23.859375 C -4.332031 21.992188 -3.425781 20.207031 -2.21875 18.5 C -1.175781 17.019531 -0.109375 15.550781 0.984375 14.09375 C 2.078125 12.644531 3.226562 11.238281 4.4375 9.875 C 5.257812 8.9375 6.125 8.039062 7.03125 7.1875 C 7.9375 6.34375 8.828125 5.507812 9.703125 4.6875 C 10.578125 3.863281 11.535156 3.023438 12.578125 2.171875 C 13.617188 1.328125 14.523438 0.4375 15.296875 -0.5 C 16.066406 -1.425781 16.601562 -2.65625 16.90625 -4.1875 C 17.207031 -5.726562 17.550781 -7.101562 17.9375 -8.3125 L 19.734375 -14.71875 C 18.859375 -13.1875 17.882812 -11.691406 16.8125 -10.234375 C 15.75 -8.785156 14.695312 -7.347656 13.65625 -5.921875 C 12.71875 -4.609375 11.742188 -3.25 10.734375 -1.84375 C 9.722656 -0.445312 8.53125 0.660156 7.15625 1.484375 C 6.550781 1.867188 5.945312 2.113281 5.34375 2.21875 C 4.738281 2.332031 4.132812 2.25 3.53125 1.96875 C 3.375 1.863281 2.992188 1.5625 2.390625 1.0625 C 1.785156 0.570312 1.234375 0.0390625 0.734375 -0.53125 C 0.242188 -1.101562 0.0546875 -1.472656 0.171875 -1.640625 C 0.273438 -1.535156 0.351562 -1.484375 0.40625 -1.484375 L 0.171875 -2.0625 C 0.222656 -1.78125 0.175781 -1.75 0.03125 -1.96875 C -0.101562 -2.1875 -0.25 -2.445312 -0.40625 -2.75 C -0.570312 -3.050781 -0.679688 -3.234375 -0.734375 -3.296875 C -0.898438 -3.835938 -1.007812 -4.394531 -1.0625 -4.96875 C -1.125 -5.550781 -1.15625 -6.113281 -1.15625 -6.65625 C -1.15625 -7.539062 -1.125 -8.429688 -1.0625 -9.328125 C -1.007812 -10.234375 -0.898438 -11.128906 -0.734375 -12.015625 C -0.628906 -12.773438 -0.410156 -13.523438 -0.078125 -14.265625 C 0.242188 -15.003906 0.597656 -15.707031 0.984375 -16.375 C 1.035156 -16.476562 1.195312 -16.765625 1.46875 -17.234375 C 1.75 -17.703125 2.050781 -18.15625 2.375 -18.59375 C 2.707031 -19.03125 2.929688 -19.222656 3.046875 -19.171875 C 3.097656 -19.171875 3.054688 -19.070312 2.921875 -18.875 C 2.785156 -18.6875 2.742188 -18.5625 2.796875 -18.5 L 4.1875 -20.5625 C 4.03125 -20.394531 3.894531 -20.3125 3.78125 -20.3125 C 3.613281 -20.425781 3.898438 -20.929688 4.640625 -21.828125 C 5.378906 -22.734375 6.269531 -23.773438 7.3125 -24.953125 C 8.363281 -26.140625 9.335938 -27.210938 10.234375 -28.171875 C 11.140625 -29.128906 11.703125 -29.691406 11.921875 -29.859375 C 12.578125 -30.515625 13.257812 -31.128906 13.96875 -31.703125 C 14.6875 -32.285156 15.457031 -32.765625 16.28125 -33.140625 C 16.71875 -33.421875 17.101562 -33.5625 17.4375 -33.5625 C 17.769531 -33.5625 18.125 -33.585938 18.5 -33.640625 C 18.832031 -33.691406 19.09375 -33.785156 19.28125 -33.921875 C 19.476562 -34.066406 19.710938 -34.164062 19.984375 -34.21875 C 20.972656 -34.488281 22.097656 -34.457031 23.359375 -34.125 C 24.617188 -33.800781 25.550781 -33.226562 26.15625 -32.40625 C 26.488281 -32.070312 26.722656 -31.5625 26.859375 -30.875 C 26.992188 -30.195312 26.976562 -29.566406 26.8125 -28.984375 C 26.644531 -28.410156 26.207031 -28.097656 25.5 -28.046875 C 25.28125 -28.046875 25.085938 -28.113281 24.921875 -28.25 C 24.753906 -28.382812 24.5625 -28.507812 24.34375 -28.625 L 24.59375 -28.375 C 24.59375 -28.375 24.179688 -28.382812 23.359375 -28.40625 C 22.535156 -28.4375 21.878906 -28.398438 21.390625 -28.296875 L 22.453125 -28.703125 C 20.804688 -28.429688 19.253906 -27.691406 17.796875 -26.484375 C 16.347656 -25.273438 15.019531 -23.890625 13.8125 -22.328125 C 12.613281 -20.765625 11.570312 -19.351562 10.6875 -18.09375 C 10.851562 -18.3125 11.222656 -18.765625 11.796875 -19.453125 C 12.378906 -20.140625 13.023438 -20.921875 13.734375 -21.796875 C 14.453125 -22.671875 15.140625 -23.460938 15.796875 -24.171875 C 16.453125 -24.890625 16.972656 -25.414062 17.359375 -25.75 C 16.972656 -25.414062 16.453125 -24.847656 15.796875 -24.046875 C 15.140625 -23.253906 14.453125 -22.421875 13.734375 -21.546875 C 13.023438 -20.671875 12.421875 -19.90625 11.921875 -19.25 C 11.429688 -18.59375 11.128906 -18.207031 11.015625 -18.09375 C 9.921875 -16.5 8.878906 -14.828125 7.890625 -13.078125 C 6.910156 -11.328125 6.117188 -9.519531 5.515625 -7.65625 C 5.398438 -7.375 5.242188 -6.820312 5.046875 -6 C 4.859375 -5.175781 4.722656 -4.335938 4.640625 -3.484375 C 4.566406 -2.640625 4.648438 -2.023438 4.890625 -1.640625 C 5.140625 -1.253906 5.617188 -1.335938 6.328125 -1.890625 C 7.429688 -2.660156 8.53125 -3.675781 9.625 -4.9375 C 10.71875 -6.195312 11.675781 -7.375 12.5 -8.46875 C 12.394531 -8.363281 12.3125 -8.3125 12.25 -8.3125 C 12.195312 -8.3125 12.28125 -8.5 12.5 -8.875 C 12.71875 -9.257812 12.976562 -9.671875 13.28125 -10.109375 C 13.582031 -10.554688 13.757812 -10.832031 13.8125 -10.9375 L 16.03125 -14.3125 C 16.800781 -15.40625 17.570312 -16.539062 18.34375 -17.71875 C 19.113281 -18.90625 19.878906 -20.046875 20.640625 -21.140625 C 20.972656 -21.578125 21.382812 -22.148438 21.875 -22.859375 C 22.375 -23.578125 22.867188 -24.046875 23.359375 -24.265625 C 24.515625 -24.753906 25.640625 -24.804688 26.734375 -24.421875 C 27.828125 -24.046875 28.632812 -23.390625 29.15625 -22.453125 C 29.675781 -21.523438 29.582031 -20.484375 28.875 -19.328125 C 27.769531 -17.410156 26.679688 -15.4375 25.609375 -13.40625 C 24.546875 -11.375 23.6875 -9.316406 23.03125 -7.234375 C 23.132812 -7.179688 23.445312 -7.347656 23.96875 -7.734375 C 24.488281 -8.117188 25.078125 -8.597656 25.734375 -9.171875 C 26.398438 -9.742188 27.019531 -10.273438 27.59375 -10.765625 C 28.164062 -11.265625 28.535156 -11.597656 28.703125 -11.765625 C 29.640625 -12.523438 30.554688 -13.257812 31.453125 -13.96875 C 32.359375 -14.6875 33.28125 -15.375 34.21875 -16.03125 C 34.925781 -16.582031 35.632812 -17.09375 36.34375 -17.5625 C 37.0625 -18.03125 37.78125 -18.535156 38.5 -19.078125 C 38.769531 -19.296875 39.148438 -19.609375 39.640625 -20.015625 C 40.140625 -20.429688 40.617188 -20.691406 41.078125 -20.796875 C 41.546875 -20.910156 41.835938 -20.554688 41.953125 -19.734375 Z M 12.828125 8.21875 C 13.046875 7.613281 13.25 7.007812 13.4375 6.40625 C 13.632812 5.8125 13.816406 5.210938 13.984375 4.609375 C 12.117188 6.304688 10.375 8.070312 8.75 9.90625 C 7.132812 11.75 5.535156 13.679688 3.953125 15.703125 C 3.128906 16.804688 2.179688 18.097656 1.109375 19.578125 C 0.0351562 21.054688 -0.8125 22.601562 -1.4375 24.21875 C -2.070312 25.84375 -2.171875 27.421875 -1.734375 28.953125 C -1.347656 30.378906 -0.835938 31.210938 -0.203125 31.453125 C 0.421875 31.703125 1.085938 31.550781 1.796875 31 C 2.515625 30.457031 3.21875 29.71875 3.90625 28.78125 C 4.59375 27.851562 5.195312 26.9375 5.71875 26.03125 C 6.238281 25.125 6.609375 24.425781 6.828125 23.9375 C 7.972656 21.519531 8.984375 19.078125 9.859375 16.609375 C 10.742188 14.140625 11.625 11.644531 12.5 9.125 C 12.445312 9.1875 12.488281 9.035156 12.625 8.671875 C 12.757812 8.316406 12.828125 8.164062 12.828125 8.21875 Z M 12.5 13.984375 L 12.5 13.734375 C 11.894531 15.378906 11.222656 16.984375 10.484375 18.546875 C 9.742188 20.109375 8.988281 21.6875 8.21875 23.28125 C 8.601562 22.625 9.015625 21.976562 9.453125 21.34375 C 9.890625 20.707031 10.300781 20.035156 10.6875 19.328125 C 11.070312 18.453125 11.414062 17.5625 11.71875 16.65625 C 12.019531 15.75 12.28125 14.859375 12.5 13.984375 Z M 8.390625 -16.453125 L 9.953125 -19 C 9.835938 -18.78125 9.6875 -18.570312 9.5 -18.375 C 9.3125 -18.1875 9.160156 -18.039062 9.046875 -17.9375 C 8.441406 -17.269531 7.945312 -16.609375 7.5625 -15.953125 C 7.175781 -15.296875 6.820312 -14.582031 6.5 -13.8125 C 6.820312 -14.25 7.160156 -14.6875 7.515625 -15.125 C 7.878906 -15.570312 8.171875 -16.015625 8.390625 -16.453125 Z M 8.3125 -14.3125 L 9.296875 -15.953125 C 8.640625 -15.078125 8.0625 -14.175781 7.5625 -13.25 Z M 8.3125 -14.3125 "/></g></g></g><g fill="#ffffff" fill-opacity="1"><g transform="translate(209.724789, 246.96987)"><g><path d="M 37.828125 -20.484375 C 38.429688 -19.710938 38.40625 -19.078125 37.75 -18.578125 C 37.09375 -18.085938 36.175781 -17.707031 35 -17.4375 C 33.820312 -17.164062 32.695312 -16.972656 31.625 -16.859375 C 30.550781 -16.753906 29.90625 -16.671875 29.6875 -16.609375 C 29.632812 -16.609375 29.414062 -16.550781 29.03125 -16.4375 C 28.644531 -16.332031 28.484375 -16.3125 28.546875 -16.375 C 28.160156 -16.207031 27.925781 -16.09375 27.84375 -16.03125 C 27.757812 -15.976562 27.582031 -15.757812 27.3125 -15.375 C 26.976562 -14.882812 26.660156 -14.378906 26.359375 -13.859375 C 26.054688 -13.335938 25.769531 -12.832031 25.5 -12.34375 C 25.382812 -12.226562 25.050781 -11.785156 24.5 -11.015625 C 23.957031 -10.253906 23.394531 -9.53125 22.8125 -8.84375 C 22.238281 -8.15625 21.84375 -7.835938 21.625 -7.890625 C 21.625 -7.890625 21.734375 -8.023438 21.953125 -8.296875 C 22.179688 -8.578125 22.265625 -8.742188 22.203125 -8.796875 L 19.828125 -6 C 20.097656 -6.28125 20.234375 -6.363281 20.234375 -6.25 C 20.015625 -5.539062 19.367188 -4.816406 18.296875 -4.078125 C 17.234375 -3.335938 16.398438 -2.742188 15.796875 -2.296875 C 15.140625 -1.804688 14.410156 -1.351562 13.609375 -0.9375 C 12.816406 -0.53125 11.984375 -0.273438 11.109375 -0.171875 C 9.398438 -0.00390625 7.726562 -0.300781 6.09375 -1.0625 C 4.5 -1.882812 3.148438 -3.078125 2.046875 -4.640625 C 0.953125 -6.203125 0.28125 -7.914062 0.03125 -9.78125 C -0.207031 -11.644531 0.109375 -13.398438 0.984375 -15.046875 C 1.703125 -16.367188 2.359375 -17.738281 2.953125 -19.15625 C 3.554688 -20.582031 4.351562 -21.957031 5.34375 -23.28125 C 5.945312 -23.988281 6.5625 -24.671875 7.1875 -25.328125 C 7.820312 -25.984375 8.523438 -26.5625 9.296875 -27.0625 C 9.953125 -27.550781 10.691406 -27.960938 11.515625 -28.296875 C 11.785156 -28.460938 12.164062 -28.582031 12.65625 -28.65625 C 13.15625 -28.738281 13.515625 -28.863281 13.734375 -29.03125 C 14.003906 -29.195312 14.25 -29.675781 14.46875 -30.46875 C 14.695312 -31.269531 14.890625 -31.832031 15.046875 -32.15625 C 15.378906 -32.757812 15.765625 -33.390625 16.203125 -34.046875 C 16.804688 -34.867188 17.453125 -35.664062 18.140625 -36.4375 C 18.828125 -37.207031 19.609375 -37.835938 20.484375 -38.328125 C 21.910156 -39.097656 23.28125 -39.207031 24.59375 -38.65625 C 25.90625 -38.101562 27.082031 -37.304688 28.125 -36.265625 C 28.125 -36.265625 28.359375 -36.097656 28.828125 -35.765625 C 29.296875 -35.441406 29.503906 -35.144531 29.453125 -34.875 L 29.109375 -35.203125 L 29.453125 -34.546875 L 29.53125 -34.46875 C 29.414062 -34.789062 29.507812 -34.773438 29.8125 -34.421875 C 30.113281 -34.066406 30.265625 -33.890625 30.265625 -33.890625 C 30.648438 -33.335938 30.925781 -32.625 31.09375 -31.75 C 31.195312 -31.195312 31.25 -30.617188 31.25 -30.015625 C 31.25 -29.410156 31.195312 -28.8125 31.09375 -28.21875 C 30.925781 -26.675781 30.632812 -25.132812 30.21875 -23.59375 C 29.8125 -22.0625 29.390625 -20.554688 28.953125 -19.078125 C 30.210938 -19.296875 31.445312 -19.539062 32.65625 -19.8125 C 33.863281 -20.09375 35.066406 -20.34375 36.265625 -20.5625 C 36.546875 -20.675781 36.820312 -20.769531 37.09375 -20.84375 C 37.363281 -20.925781 37.609375 -20.832031 37.828125 -20.5625 C 37.890625 -20.507812 37.90625 -20.484375 37.875 -20.484375 C 37.84375 -20.484375 37.828125 -20.484375 37.828125 -20.484375 Z M 9.375 -3.859375 C 11.289062 -4.242188 13.054688 -5.117188 14.671875 -6.484375 C 16.296875 -7.859375 17.710938 -9.453125 18.921875 -11.265625 C 20.128906 -13.078125 21.140625 -14.78125 21.953125 -16.375 C 20.753906 -16.53125 19.523438 -16.828125 18.265625 -17.265625 C 17.003906 -17.710938 15.890625 -18.359375 14.921875 -19.203125 C 13.960938 -20.054688 13.320312 -21.164062 13 -22.53125 C 12.34375 -21.820312 11.351562 -20.125 10.03125 -17.4375 L 10.53125 -18.171875 C 10.476562 -18.015625 10.203125 -17.398438 9.703125 -16.328125 C 9.210938 -15.253906 8.664062 -13.976562 8.0625 -12.5 C 7.457031 -11.019531 7.003906 -9.59375 6.703125 -8.21875 C 6.398438 -6.851562 6.410156 -5.726562 6.734375 -4.84375 C 7.066406 -3.96875 7.921875 -3.640625 9.296875 -3.859375 Z M 25.578125 -26.65625 C 25.742188 -27.363281 25.921875 -28.222656 26.109375 -29.234375 C 26.304688 -30.253906 26.429688 -31.269531 26.484375 -32.28125 C 26.535156 -33.300781 26.34375 -34.164062 25.90625 -34.875 C 25.363281 -35.75 24.707031 -36.019531 23.9375 -35.6875 C 23.164062 -35.363281 22.421875 -34.816406 21.703125 -34.046875 C 20.992188 -33.285156 20.421875 -32.628906 19.984375 -32.078125 C 19.929688 -32.078125 19.90625 -32.0625 19.90625 -32.03125 C 19.90625 -32.007812 19.90625 -32 19.90625 -32 L 19.828125 -31.828125 L 19.828125 -31.90625 C 19.765625 -31.75 19.734375 -31.671875 19.734375 -31.671875 C 19.515625 -31.390625 19.296875 -31.097656 19.078125 -30.796875 C 18.859375 -30.492188 18.613281 -30.125 18.34375 -29.6875 C 18.394531 -29.75 18.570312 -30.007812 18.875 -30.46875 C 19.175781 -30.9375 19.351562 -31.117188 19.40625 -31.015625 C 19.519531 -30.847656 19.453125 -30.503906 19.203125 -29.984375 C 18.953125 -29.460938 18.691406 -28.941406 18.421875 -28.421875 C 18.148438 -27.898438 17.957031 -27.554688 17.84375 -27.390625 C 17.625 -26.734375 17.414062 -26.070312 17.21875 -25.40625 C 17.03125 -24.75 16.882812 -24.066406 16.78125 -23.359375 C 16.726562 -22.648438 16.710938 -21.9375 16.734375 -21.21875 C 16.765625 -20.507812 17.050781 -19.90625 17.59375 -19.40625 C 17.925781 -19.132812 18.335938 -18.941406 18.828125 -18.828125 C 19.328125 -18.722656 19.796875 -18.644531 20.234375 -18.59375 C 20.503906 -18.53125 20.859375 -18.484375 21.296875 -18.453125 C 21.734375 -18.429688 22.066406 -18.445312 22.296875 -18.5 C 22.734375 -18.613281 22.953125 -18.671875 22.953125 -18.671875 C 22.953125 -18.671875 23.0625 -18.863281 23.28125 -19.25 C 23.882812 -20.289062 24.347656 -21.492188 24.671875 -22.859375 C 25.003906 -24.234375 25.304688 -25.5 25.578125 -26.65625 Z M 19.90625 -32 C 19.90625 -32 19.914062 -32 19.9375 -32 C 19.96875 -32 19.984375 -32.023438 19.984375 -32.078125 Z M 19.90625 -32 "/></g></g></g></svg>